<mxfile host="app.diagrams.net" modified="2024-06-06T09:28:11.958Z" agent="Mozilla/5.0 (X11; Linux x86_64) AppleWebKit/537.36 (KHTML, like Gecko) Chrome/115.0.0.0 Safari/537.36" etag="IDLxQ2euqBs8Hq7b3be_" version="24.3.1" type="github">
  <diagram name="第 1 页" id="n6qldK6CsxPLJ3PaVGNs">
    <mxGraphModel dx="1207" dy="691" grid="1" gridSize="10" guides="1" tooltips="1" connect="1" arrows="1" fold="1" page="1" pageScale="1" pageWidth="827" pageHeight="1169" math="0" shadow="0">
      <root>
        <mxCell id="0" />
        <mxCell id="1" parent="0" />
        <mxCell id="MgGORTpWwi8_ZkV-cECp-1" value="&lt;font style=&quot;font-size: 19px;&quot;&gt;FixedFrame&lt;/font&gt;" style="swimlane;childLayout=stackLayout;horizontal=1;startSize=50;horizontalStack=0;rounded=1;fontSize=14;fontStyle=0;strokeWidth=2;resizeParent=0;resizeLast=1;shadow=0;dashed=0;align=center;arcSize=4;whiteSpace=wrap;html=1;" vertex="1" parent="1">
          <mxGeometry x="290" y="70" width="160" height="120" as="geometry" />
        </mxCell>
        <mxCell id="MgGORTpWwi8_ZkV-cECp-2" value="&lt;font style=&quot;font-size: 16px;&quot;&gt;- up, left, down, right&lt;/font&gt;&lt;div style=&quot;font-size: 16px;&quot;&gt;&lt;font style=&quot;font-size: 16px;&quot;&gt;+ BePressed()&lt;/font&gt;&lt;/div&gt;&lt;div style=&quot;font-size: 16px;&quot;&gt;&lt;font style=&quot;font-size: 16px;&quot;&gt;+ Display()&lt;/font&gt;&lt;/div&gt;&lt;div style=&quot;font-size: 16px;&quot;&gt;&lt;br&gt;&lt;/div&gt;" style="align=left;strokeColor=none;fillColor=none;spacingLeft=4;fontSize=12;verticalAlign=top;resizable=0;rotatable=0;part=1;html=1;" vertex="1" parent="MgGORTpWwi8_ZkV-cECp-1">
          <mxGeometry y="50" width="160" height="70" as="geometry" />
        </mxCell>
        <mxCell id="MgGORTpWwi8_ZkV-cECp-3" value="&lt;span style=&quot;font-size: 19px;&quot;&gt;ToggleBtn&lt;/span&gt;" style="swimlane;childLayout=stackLayout;horizontal=1;startSize=50;horizontalStack=0;rounded=1;fontSize=14;fontStyle=0;strokeWidth=2;resizeParent=0;resizeLast=1;shadow=0;dashed=0;align=center;arcSize=4;whiteSpace=wrap;html=1;" vertex="1" parent="1">
          <mxGeometry x="90" y="290" width="160" height="140" as="geometry" />
        </mxCell>
        <mxCell id="MgGORTpWwi8_ZkV-cECp-4" value="&lt;div style=&quot;font-size: 16px;&quot;&gt;- on_img, off_img&lt;/div&gt;&lt;div style=&quot;font-size: 16px;&quot;&gt;- current, press_cb&lt;/div&gt;&lt;div style=&quot;font-size: 16px;&quot;&gt;+ GetStat()&lt;/div&gt;&lt;div style=&quot;font-size: 16px;&quot;&gt;+ SetStat()&lt;/div&gt;" style="align=left;strokeColor=none;fillColor=none;spacingLeft=4;fontSize=12;verticalAlign=top;resizable=0;rotatable=0;part=1;html=1;" vertex="1" parent="MgGORTpWwi8_ZkV-cECp-3">
          <mxGeometry y="50" width="160" height="90" as="geometry" />
        </mxCell>
        <mxCell id="MgGORTpWwi8_ZkV-cECp-5" value="&lt;span style=&quot;font-size: 19px;&quot;&gt;ImageLabel&lt;/span&gt;" style="swimlane;childLayout=stackLayout;horizontal=1;startSize=50;horizontalStack=0;rounded=1;fontSize=14;fontStyle=0;strokeWidth=2;resizeParent=0;resizeLast=1;shadow=0;dashed=0;align=center;arcSize=4;whiteSpace=wrap;html=1;" vertex="1" parent="1">
          <mxGeometry x="290" y="290" width="160" height="80" as="geometry" />
        </mxCell>
        <mxCell id="MgGORTpWwi8_ZkV-cECp-6" value="&lt;div style=&quot;font-size: 16px;&quot;&gt;- img, press_cb&lt;/div&gt;&lt;div style=&quot;font-size: 16px;&quot;&gt;&lt;br&gt;&lt;/div&gt;" style="align=left;strokeColor=none;fillColor=none;spacingLeft=4;fontSize=12;verticalAlign=top;resizable=0;rotatable=0;part=1;html=1;" vertex="1" parent="MgGORTpWwi8_ZkV-cECp-5">
          <mxGeometry y="50" width="160" height="30" as="geometry" />
        </mxCell>
        <mxCell id="MgGORTpWwi8_ZkV-cECp-7" value="&lt;span style=&quot;font-size: 19px;&quot;&gt;TextLabel&lt;/span&gt;" style="swimlane;childLayout=stackLayout;horizontal=1;startSize=50;horizontalStack=0;rounded=1;fontSize=14;fontStyle=0;strokeWidth=2;resizeParent=0;resizeLast=1;shadow=0;dashed=0;align=center;arcSize=4;whiteSpace=wrap;html=1;" vertex="1" parent="1">
          <mxGeometry x="500" y="290" width="160" height="140" as="geometry" />
        </mxCell>
        <mxCell id="MgGORTpWwi8_ZkV-cECp-8" value="&lt;div style=&quot;font-size: 16px;&quot;&gt;- color,&amp;nbsp;&lt;span style=&quot;background-color: initial;&quot;&gt;text, press_cb&lt;/span&gt;&lt;/div&gt;&lt;div style=&quot;font-size: 16px;&quot;&gt;+ SetText()&lt;/div&gt;&lt;div style=&quot;font-size: 16px;&quot;&gt;+ GetText()&lt;/div&gt;" style="align=left;strokeColor=none;fillColor=none;spacingLeft=4;fontSize=12;verticalAlign=top;resizable=0;rotatable=0;part=1;html=1;" vertex="1" parent="MgGORTpWwi8_ZkV-cECp-7">
          <mxGeometry y="50" width="160" height="90" as="geometry" />
        </mxCell>
        <mxCell id="MgGORTpWwi8_ZkV-cECp-11" value="" style="endArrow=classic;html=1;rounded=0;exitX=0.5;exitY=0;exitDx=0;exitDy=0;entryX=0.25;entryY=1;entryDx=0;entryDy=0;" edge="1" parent="1" source="MgGORTpWwi8_ZkV-cECp-3" target="MgGORTpWwi8_ZkV-cECp-2">
          <mxGeometry width="50" height="50" relative="1" as="geometry">
            <mxPoint x="390" y="380" as="sourcePoint" />
            <mxPoint x="440" y="330" as="targetPoint" />
          </mxGeometry>
        </mxCell>
        <mxCell id="MgGORTpWwi8_ZkV-cECp-12" value="" style="endArrow=classic;html=1;rounded=0;exitX=0.5;exitY=0;exitDx=0;exitDy=0;entryX=0.5;entryY=1;entryDx=0;entryDy=0;" edge="1" parent="1" source="MgGORTpWwi8_ZkV-cECp-5" target="MgGORTpWwi8_ZkV-cECp-2">
          <mxGeometry width="50" height="50" relative="1" as="geometry">
            <mxPoint x="180" y="300" as="sourcePoint" />
            <mxPoint x="250" y="200" as="targetPoint" />
          </mxGeometry>
        </mxCell>
        <mxCell id="MgGORTpWwi8_ZkV-cECp-13" value="" style="endArrow=classic;html=1;rounded=0;exitX=0.5;exitY=0;exitDx=0;exitDy=0;entryX=0.75;entryY=1;entryDx=0;entryDy=0;" edge="1" parent="1" source="MgGORTpWwi8_ZkV-cECp-7" target="MgGORTpWwi8_ZkV-cECp-2">
          <mxGeometry width="50" height="50" relative="1" as="geometry">
            <mxPoint x="360" y="300" as="sourcePoint" />
            <mxPoint x="290" y="200" as="targetPoint" />
          </mxGeometry>
        </mxCell>
        <mxCell id="MgGORTpWwi8_ZkV-cECp-14" value="&lt;font style=&quot;font-size: 19px;&quot;&gt;Lcd&lt;/font&gt;" style="swimlane;childLayout=stackLayout;horizontal=1;startSize=50;horizontalStack=0;rounded=1;fontSize=14;fontStyle=0;strokeWidth=2;resizeParent=0;resizeLast=1;shadow=0;dashed=0;align=center;arcSize=4;whiteSpace=wrap;html=1;" vertex="1" parent="1">
          <mxGeometry x="500" y="70" width="160" height="120" as="geometry" />
        </mxCell>
        <mxCell id="MgGORTpWwi8_ZkV-cECp-15" value="&lt;div style=&quot;font-size: 16px;&quot;&gt;- fd, p, width, height&lt;/div&gt;&lt;div style=&quot;font-size: 16px;&quot;&gt;+ set(y, x, color)&lt;/div&gt;&lt;div style=&quot;font-size: 16px;&quot;&gt;+ operator[](y)&lt;/div&gt;" style="align=left;strokeColor=none;fillColor=none;spacingLeft=4;fontSize=12;verticalAlign=top;resizable=0;rotatable=0;part=1;html=1;" vertex="1" parent="MgGORTpWwi8_ZkV-cECp-14">
          <mxGeometry y="50" width="160" height="70" as="geometry" />
        </mxCell>
        <mxCell id="MgGORTpWwi8_ZkV-cECp-16" value="" style="endArrow=none;html=1;rounded=0;exitX=1;exitY=0.25;exitDx=0;exitDy=0;entryX=0;entryY=0.25;entryDx=0;entryDy=0;" edge="1" parent="1" source="MgGORTpWwi8_ZkV-cECp-2" target="MgGORTpWwi8_ZkV-cECp-15">
          <mxGeometry width="50" height="50" relative="1" as="geometry">
            <mxPoint x="390" y="380" as="sourcePoint" />
            <mxPoint x="440" y="330" as="targetPoint" />
          </mxGeometry>
        </mxCell>
        <mxCell id="MgGORTpWwi8_ZkV-cECp-19" value="&lt;font style=&quot;font-size: 19px;&quot;&gt;Input&lt;/font&gt;" style="swimlane;childLayout=stackLayout;horizontal=1;startSize=50;horizontalStack=0;rounded=1;fontSize=14;fontStyle=0;strokeWidth=2;resizeParent=0;resizeLast=1;shadow=0;dashed=0;align=center;arcSize=4;whiteSpace=wrap;html=1;" vertex="1" parent="1">
          <mxGeometry x="80" y="70" width="160" height="120" as="geometry" />
        </mxCell>
        <mxCell id="MgGORTpWwi8_ZkV-cECp-20" value="&lt;div style=&quot;font-size: 16px;&quot;&gt;- fd, hasevent, where&lt;/div&gt;&lt;div style=&quot;font-size: 16px;&quot;&gt;+ Run()&lt;/div&gt;&lt;div style=&quot;font-size: 16px;&quot;&gt;+ Get()&lt;/div&gt;" style="align=left;strokeColor=none;fillColor=none;spacingLeft=4;fontSize=12;verticalAlign=top;resizable=0;rotatable=0;part=1;html=1;" vertex="1" parent="MgGORTpWwi8_ZkV-cECp-19">
          <mxGeometry y="50" width="160" height="70" as="geometry" />
        </mxCell>
        <mxCell id="MgGORTpWwi8_ZkV-cECp-21" value="" style="endArrow=none;html=1;rounded=0;exitX=1;exitY=0.25;exitDx=0;exitDy=0;entryX=0;entryY=0.25;entryDx=0;entryDy=0;" edge="1" parent="1" source="MgGORTpWwi8_ZkV-cECp-20" target="MgGORTpWwi8_ZkV-cECp-2">
          <mxGeometry width="50" height="50" relative="1" as="geometry">
            <mxPoint x="440" y="148" as="sourcePoint" />
            <mxPoint x="260" y="155" as="targetPoint" />
          </mxGeometry>
        </mxCell>
      </root>
    </mxGraphModel>
  </diagram>
</mxfile>
